<svg width="125" height="100" viewBox="0 0 125 100" fill="none" xmlns="http://www.w3.org/2000/svg">
<path d="M29.281 63.0299C39.2619 63.0299 47.3529 55.2808 47.3529 45.7217C47.3529 36.1626 39.2619 28.4135 29.281 28.4135C19.3002 28.4135 11.2092 36.1626 11.2092 45.7217C11.2092 55.2808 19.3002 63.0299 29.281 63.0299Z" fill="#4FBFA4"/>
<path d="M29.281 42.875C38.7565 42.875 46.4379 35.5337 46.4379 26.4777C46.4379 17.4218 38.7565 10.0804 29.281 10.0804C19.8055 10.0804 12.1242 17.4218 12.1242 26.4777C12.1242 35.5337 19.8055 42.875 29.281 42.875Z" fill="#4FBFA4"/>
<path d="M48.0392 38.3201C57.8305 38.3201 65.768 30.724 65.768 21.3536C65.768 11.9832 57.8305 4.38696 48.0392 4.38696C38.2479 4.38696 30.3104 11.9832 30.3104 21.3536C30.3104 30.724 38.2479 38.3201 48.0392 38.3201Z" fill="#4FBFA4"/>
<path d="M64.9674 48.7963C73.1799 48.7963 79.8361 42.4235 79.8361 34.5625C79.8361 26.7014 73.1799 20.3287 64.9674 20.3287C56.7553 20.3287 50.098 26.7014 50.098 34.5625C50.098 42.4235 56.7553 48.7963 64.9674 48.7963Z" fill="#4FBFA4"/>
<path d="M54.1013 62.119C62.3134 62.119 68.9706 55.7464 68.9706 47.8854C68.9706 40.0243 62.3134 33.6516 54.1013 33.6516C45.8892 33.6516 39.2321 40.0243 39.2321 47.8854C39.2321 55.7464 45.8892 62.119 54.1013 62.119Z" fill="#4FBFA4"/>
<path d="M41.9771 74.9863C42.3203 70.4315 41.634 65.649 40.9477 60.6388C40.2615 55.6285 39.3465 50.5043 39.3465 45.2663C39.2321 40.0283 39.9183 34.6763 41.7483 29.78C43.4641 24.8836 46.0948 20.4427 49.183 16.4572C46.5523 20.7843 44.6078 25.4529 43.5784 30.3493C42.5491 35.1318 42.5491 40.1421 43.2353 44.9247C43.9216 49.7072 45.2942 54.4897 46.781 59.3861C48.1536 64.2825 49.6405 69.4067 49.9836 74.9863H41.9771Z" fill="#947151"/>
<path d="M41.4052 43.3306C43.6928 43.5582 46.2092 43.4443 48.6111 43.2167C51.0131 42.9889 53.415 42.4196 55.7026 41.6224C57.9902 40.8254 60.1634 39.6867 62.1079 38.2064C64.0523 36.7261 65.768 34.9041 67.0261 32.7406C65.8823 34.9041 64.3954 36.9537 62.451 38.6619C60.6209 40.3699 58.4477 41.6224 56.0457 42.6473C53.7582 43.6721 51.2419 44.3553 48.8399 44.9247C46.3235 45.3802 43.8072 45.7218 41.1765 45.608L41.4052 43.3306ZM40.7189 41.7363C39.0032 40.7115 37.5163 39.5728 36.1437 38.4341C34.7712 37.1815 33.3986 35.8151 32.2549 34.4487C29.9673 31.488 28.2517 27.958 28.0228 24.3142C28.5948 27.958 30.6536 31.1464 33.1699 33.6516C34.4281 34.9041 35.8006 36.0429 37.2876 37.0676C38.7745 38.0925 40.3758 39.0034 41.8627 39.6867L40.7189 41.7363ZM42.549 54.7175C40.6046 54.6037 38.7745 54.2621 36.9445 53.8066C35.1144 53.3511 33.3986 52.6678 31.683 51.7569C28.366 49.935 25.5066 47.316 23.7909 44.0137C25.8497 47.0882 28.8235 49.3656 32.1405 50.6181C33.7418 51.3014 35.5719 51.7569 37.2876 52.0985C39.0032 52.4401 40.8333 52.5539 42.549 52.4402V54.7175Z" fill="#947151"/>
<path d="M20.1308 49.821C20.1308 52.3262 18.0719 54.3758 18.0719 54.3758C18.0719 54.3758 16.013 52.3262 16.013 49.821C16.013 47.316 18.0719 45.2662 18.0719 45.2662C18.0719 45.2662 20.1308 47.316 20.1308 49.821ZM73.0878 40.0283C73.0878 42.5334 71.0298 44.5831 71.0298 44.5831C71.0298 44.5831 68.9706 42.5334 68.9706 40.0283C68.9706 37.5231 71.0298 35.4735 71.0298 35.4735C71.0298 35.4735 73.0878 37.5231 73.0878 40.0283ZM25.8497 55.6285C25.8497 58.1336 23.7909 60.1833 23.7909 60.1833C23.7909 60.1833 21.732 58.1336 21.732 55.6285C21.732 53.1233 23.7909 51.0737 23.7909 51.0737C23.7909 51.0737 25.8497 53.1233 25.8497 55.6285ZM20.1308 25.9084C20.1308 28.4135 18.0719 30.4632 18.0719 30.4632C18.0719 30.4632 16.013 28.4135 16.013 25.9084C16.013 23.4032 18.0719 21.3536 18.0719 21.3536C18.0719 21.3536 20.1308 23.4032 20.1308 25.9084ZM25.8497 19.3039C25.8497 21.8091 23.7909 23.8587 23.7909 23.8587C23.7909 23.8587 21.732 21.8091 21.732 19.3039C21.732 16.7988 23.7909 14.7491 23.7909 14.7491C23.7909 14.7491 25.8497 16.7988 25.8497 19.3039ZM55.2451 22.6062C55.2451 25.1112 53.1862 27.161 53.1862 27.161C53.1862 27.161 51.2418 25.1112 51.2418 22.6062C51.2418 20.101 53.3007 18.0514 53.3007 18.0514C53.3007 18.0514 55.2451 20.101 55.2451 22.6062ZM60.964 16.4571C60.964 18.9623 58.9053 21.0119 58.9053 21.0119C58.9053 21.0119 56.8464 18.9623 56.8464 16.4571C56.8464 13.9521 58.9053 11.9023 58.9053 11.9023C58.9053 11.9023 60.964 13.9521 60.964 16.4571ZM34.3137 42.8749C34.3137 45.3801 32.2549 47.4297 32.2549 47.4297C32.2549 47.4297 30.1961 45.3801 30.1961 42.8749C30.1961 40.3699 32.2549 38.3202 32.2549 38.3202C32.2549 38.3202 34.3137 40.3699 34.3137 42.8749ZM27.9085 37.0676C27.9085 39.5728 25.8497 41.6224 25.8497 41.6224C25.8497 41.6224 23.7909 39.5728 23.7909 37.0676C23.7909 34.5625 25.8497 32.5128 25.8497 32.5128C25.8497 32.5128 27.9085 34.5625 27.9085 37.0676ZM38.7745 25.9084C38.7745 28.4135 36.7157 30.4632 36.7157 30.4632C36.7157 30.4632 34.6569 28.4135 34.6569 25.9084C34.6569 23.4032 36.7157 21.3536 36.7157 21.3536C36.7157 21.3536 38.7745 23.4032 38.7745 25.9084ZM43.2353 18.0514C43.2353 20.5565 41.1765 22.6062 41.1765 22.6062C41.1765 22.6062 39.1176 20.5565 39.1176 18.0514C39.1176 15.5462 41.1765 13.4966 41.1765 13.4966C41.1765 13.4966 43.2353 15.5462 43.2353 18.0514ZM49.4118 37.0676C49.4118 39.5728 47.3529 41.6224 47.3529 41.6224C47.3529 41.6224 45.2941 39.5728 45.2941 37.0676C45.2941 34.5625 47.3529 32.5128 47.3529 32.5128C47.3529 32.5128 49.4118 34.5625 49.4118 37.0676ZM64.9673 47.4297C64.9673 49.9349 62.9085 51.9845 62.9085 51.9845C62.9085 51.9845 60.8497 49.9349 60.8497 47.4297C60.8497 44.9247 62.9085 42.8749 62.9085 42.8749C62.9085 42.8749 64.9673 44.9247 64.9673 47.4297ZM60.964 28.4135C60.964 30.9187 58.9053 32.9683 58.9053 32.9683C58.9053 32.9683 56.8464 30.9187 56.8464 28.4135C56.8464 25.9084 58.9053 23.8587 58.9053 23.8587C58.9053 23.8587 60.964 25.9084 60.964 28.4135ZM54.1013 51.0737C54.1013 53.5788 52.0425 55.6285 52.0425 55.6285C52.0425 55.6285 49.9836 53.5788 49.9836 51.0737C49.9836 48.5685 52.0425 46.5188 52.0425 46.5188C52.0425 46.5188 54.1013 48.5685 54.1013 51.0737ZM59.4772 56.1978C59.4772 58.7029 57.4183 60.7525 57.4183 60.7525C57.4183 60.7525 55.3594 58.7029 55.3594 56.1978C55.3594 53.6927 57.4183 51.643 57.4183 51.643C57.4183 51.643 59.4772 53.6927 59.4772 56.1978Z" fill="#43A88A"/>
<path d="M20.6643 88.6382C20.6643 89.5377 20.0996 89.9874 18.9702 89.9874C17.8596 89.9874 17.3043 89.5377 17.3043 88.6382V70.283H12.3631C11.6855 70.283 11.3278 69.8052 11.2902 68.8494C11.2902 67.9125 11.6478 67.444 12.3631 67.444H25.6055C26.3208 67.444 26.6596 67.9125 26.622 68.8494C26.622 69.8052 26.2831 70.283 25.6055 70.283H20.6643V88.6382ZM37.1363 80.5145H34.9621C34.6421 80.5145 34.388 80.3927 34.1998 80.1491C34.0304 79.8867 33.9457 79.54 33.9457 79.109C33.9457 78.1533 34.341 77.6759 35.1316 77.6759H38.4351C39.1316 77.6759 39.621 77.4791 39.9033 77.0856C40.1857 76.692 40.3269 76.261 40.3269 75.7925V72.1664C40.3269 71.6979 40.1857 71.2669 39.9033 70.8733C39.621 70.4798 39.1316 70.283 38.4351 70.283H32.4774V88.6101C32.4774 89.5096 31.9221 89.9593 30.8116 89.9593C29.701 89.9593 29.1457 89.5096 29.1457 88.6101V69.1305C29.1457 68.4559 29.3151 68.0062 29.6539 67.7813C30.0116 67.5564 30.4351 67.444 30.9245 67.444H39.141C39.6304 67.444 40.1386 67.547 40.6657 67.7532C41.1927 67.9593 41.701 68.2217 42.1904 68.5402H42.1621C42.6516 68.8963 43.028 69.3648 43.2916 69.9457C43.5551 70.5079 43.6868 71.1638 43.6868 71.9134V76.0174C43.6868 77.5353 43.1786 78.6687 42.1621 79.4182C41.9551 79.5682 41.7292 79.7087 41.4845 79.8399C41.2586 79.9711 41.0233 80.1022 40.7786 80.2334L45.2963 87.6543C45.3527 87.748 45.4092 87.8699 45.4657 88.0198C45.5221 88.1697 45.5504 88.2915 45.5504 88.3852C45.5504 88.835 45.2304 89.266 44.5904 89.6782V89.6501C44.1574 89.9125 43.7904 90.0437 43.4892 90.0437C43.0563 90.0437 42.708 89.8282 42.4445 89.3971L42.4727 89.4253L37.1363 80.5145ZM49.9785 89.7907C49.282 89.7907 48.8114 89.6127 48.5667 89.2566C48.322 88.9005 48.1997 88.507 48.1997 88.076V69.1305C48.1997 68.6995 48.322 68.3154 48.5667 67.9781C48.8114 67.622 49.282 67.444 49.9785 67.444H59.8044C60.5009 67.444 60.8679 67.9125 60.9056 68.8494C60.9432 69.8052 60.5762 70.283 59.8044 70.283H51.5314V86.9516H60.3126C61.0091 86.9516 61.3667 87.4107 61.3856 88.329C61.4232 89.3034 61.0656 89.7907 60.3126 89.7907H49.9785ZM58.7597 78.1533C58.7597 78.8092 58.5244 79.362 58.0538 79.8118C57.602 80.2615 57.0467 80.4864 56.3879 80.4864C55.7479 80.4864 55.202 80.2615 54.7503 79.8118C54.2985 79.362 54.0726 78.8092 54.0726 78.1533C54.0726 77.4978 54.2985 76.945 54.7503 76.4953C55.202 76.0455 55.7479 75.8206 56.3879 75.8206C57.0467 75.8206 57.602 76.0455 58.0538 76.4953C58.5244 76.945 58.7597 77.4978 58.7597 78.1533ZM66.2468 89.7907C65.5504 89.7907 65.0798 89.6127 64.8351 89.2566C64.5904 88.9005 64.468 88.507 64.468 88.076V69.1305C64.468 68.6995 64.5904 68.3154 64.8351 67.9781C65.0798 67.622 65.5504 67.444 66.2468 67.444H76.0724C76.7689 67.444 77.1359 67.9125 77.1736 68.8494C77.2112 69.8052 76.8442 70.283 76.0724 70.283H67.7998V86.9516H76.5807C77.2771 86.9516 77.6348 87.4107 77.6536 88.329C77.6912 89.3034 77.3336 89.7907 76.5807 89.7907H66.2468ZM75.0277 78.1533C75.0277 78.8092 74.7924 79.362 74.3218 79.8118C73.8701 80.2615 73.3148 80.4864 72.6559 80.4864C72.0159 80.4864 71.4701 80.2615 71.0183 79.8118C70.5665 79.362 70.3407 78.8092 70.3407 78.1533C70.3407 77.4978 70.5665 76.945 71.0183 76.4953C71.4701 76.0455 72.0159 75.8206 72.6559 75.8206C73.3148 75.8206 73.8701 76.0455 74.3218 76.4953C74.7924 76.945 75.0277 77.4978 75.0277 78.1533Z" fill="white"/>
</svg>
